<?xml version="1.0" encoding="UTF-8"?>
<svg id="Layer_1" xmlns="http://www.w3.org/2000/svg" version="1.1" viewBox="0 0 4000 2800">
  <!-- Generator: Adobe Illustrator 29.5.1, SVG Export Plug-In . SVG Version: 2.1.0 Build 141)  -->
  <defs>
    <style>
      .st0 {
        fill: #fbcb23;
      }

      .st1 {
        fill: #faf6ba;
      }

      .st2 {
        fill: #ffed70;
      }

      .st3 {
        fill: #fff539;
      }

      .st4 {
        fill: #fdf9e8;
      }

      .st5 {
        fill: #fbf3ce;
      }

      .st6 {
        fill: #fbe239;
      }
    </style>
  </defs>
  <g id="Generative_Object">
    <path class="st6" d="M2249.6,728.7c24.9,15.6,14.5,51.7,17.4,59.9,10.8,30.7,45.4,44.3,44.5,79.3-4.1,1.5-45.1-64.1-48.3-71.5-5.8-13.3.4-25.8,0-27.1-2.9-9-30.8-27.6-13.5-40.6Z"/>
    <path class="st6" d="M2299.8,2201.8l75.4,52.2c-2.6,5.4-94.9-40.2-75.4-52.2Z"/>
    <path class="st6" d="M2195.4,628.2c8,28.3,46.1,58.2,34.8,88.9-1-34.7-45.6-57.3-34.8-88.9Z"/>
    <path class="st6" d="M2060.1,2047.2l52.2,32.9c-1.5,3.8-52.7-21.2-52.2-32.9Z"/>
    <path class="st6" d="M2249.6,2170.9c3.9-.6,31.3,20.5,27.1,30.9l-32.9-25.1,5.8-5.8Z"/>
    <path class="st6" d="M2036.9,2043.3c1,0,17.3,11.2,11.6,15.5-14.2,6.6-20.6-15.5-11.6-15.5Z"/>
    <path class="st6" d="M2837.3,1416.9c17.6,2.1-15.3,23.5-13.5,9.7s12.7-9.8,13.5-9.7Z"/>
    <path class="st6" d="M2332.7,2209.5c2.4-2.3,15.3,1.7,15.5,5.8.5,11.2-23.1,1.4-15.5-5.8Z"/>
    <path class="st6" d="M1298.4,2051c3,2.9,3.3,13.6,0,15.5s-10.6-10.9,0-15.5Z"/>
    <path class="st6" d="M2493.2,2325.5c10.4-2.3,15,6.7,3.9,7.7-.4,0-7.9-5.7-3.9-7.7Z"/>
    <path class="st2" d="M2806.3,1440.1c.4,0,7.8,5.6,3.9,7.7-10,5.3-11.2-6.9-3.9-7.7Z"/>
    <path class="st6" d="M1325.5,1942.8c5.9-2.1,8.5,5.7,3.9,7.7-5.7,2.5-8.5-6-3.9-7.7Z"/>
    <path class="st6" d="M1294.6,2085.8c4.8-3.3,5.1,14.8,0,11.6s-3.3-9.3,0-11.6Z"/>
    <polygon class="st2" points="2083.3 376.9 2087.2 380.7 2087.2 384.6 2083.3 384.6 2083.3 376.9"/>
    <polygon class="st3" points="2145.2 2109 2149 2112.9 2149 2116.7 2145.2 2116.7 2145.2 2109"/>
    <g>
      <path class="st6" d="M2390.7,2217.3c22.2,15.8,41.6,37.3,69.6,44.5-17.8-17.2-45.8-37.6-69.6-44.5-20.9-14.9-39-36.1-63.8-46.4-15.9,14.4,32.9,23.4,32.9,32.9,0,5.1-25.7,6-27.1,5.8-27.8-4.7-20.4-15.9-40.6-30.9l-3.9,19.3c-23.6-40-79.6-48.1-110.2-79.3-.5-.5,8.8-6.8,1.9-13.5s-22-2.9-23.2-3.9c-12.5-9.8,6.1-7.6,0-11.6-29.6-19.4-78.8-30.3-104.4-61.9v19.3c-29.2-21-47.4-22.5-77.3-27.1-145.3,97.2-290.1,195-436.9,290-45.4,29.3-165,123.5-212.7,135.3-9.6,2.4-27.5,0-38.7,3.9-16.2-31.4-2.2-59,9.7-87-44.8,30.8-.9-16.5,0-19.3,4.3-13.6-8.4-11.2-7.7-23.2.4-6.8,13.9-.7,15.5-7.7.7-3-1.3-40.4,0-46.4s10-51.8,11.6-54.1c6.2-9,16,2.7,19.3-7.7,6.1-19.6-8-21.8-7.7-23.2.8-4.7,17.5-13.9,15.5-23.2s-11.1-1-11.6-11.6c-.4-8,15.3-14.4,15.5-15.5s-11.2-.5-7.7-15.5c3-13,18.8-36.4,19.3-38.7s-1.9-22.7,0-30.9c16.4-69.4,43.2-139.1,44.5-210.7-6.8,45.3-50,182-25.1,44.5-24.3,9.6-15,52.2-27.1,73.5,1.2,2.3,21.4-13.4,23.2,7.7l-65.7,255.2-7.7-19.3,15.5-85.1-7.7,3.9-44.5,346c-5.7,0-2.6-105.6-1.9-114.1,5.1-61.2,22.3-129.2,34.8-185.6.9-4,12.1-101,23.2-73.5s-12.3,14.4-5.8,17.4c8.5,3.9,46-119.2,38.7-135.3-12.3-8.6-21.8,107-34.8,108.3-22.4,2.2,1.7-16,1.9-17.4,5.8-28.2,12.4-41.2-15.5-42.5,49.2-6.2-18.5-24.1,27.1-38.7-29.8-7.5-2.1-3.1,7.7-27.1,13-31.9-10.4-78.7,11.6-58,1.8-18.6-21.5-18.5,7.7-23.2-21.8-18.4-.2-15.9,0-19.3.7-12-9-13.2-7.7-19.3,1.1-5.3,23.6-11,23.2-15.5s-14.5-6.4-15.5-11.6c-2.8-15.2,39.3-125.9,42.5-150.8l-630.2-580v-11.6c16.3-29.8,50.7-14.1,71.5-17.4,239.3-38.1,484.5-40.3,726.9-50.3,15.7-4.9,73.6-115.6,75.4-137.3,73.9-131.8,132.1-273,212.7-409.8,15-25.4,121.8-201.5,137.3-199.1l32.9,63.8c16.6,8.6,7.1-7.4,15.5-11.6,15.3,19.9-5,20.4-3.9,27.1.4,2.4,28.7,22.4,27.1,38.7l-21.3-29c7.3,48,44.8,88.8,67.7,129.5,1.3,2.3,11.1,43.4,15.5,50.3,4,6.4,11.3-6.3,15.5,0,11.2,17.3,23.8,41.7,17.4,59.9l-17.4-17.4,139.2,305.4c15.4,14.4-1.8-13,5.8-17.4,11.4-6.7,5.9,99.9,36.7,75.4-6.4,27.2,13.9,31.3,36.7,36.7,150,35.4,387.5,51.9,549,73.5,67.7,9,216,10.1,270.6,27.1,43.6,13.5,6,51.1-11.6,69.6-112,117.8-281.4,196.4-394.4,309.3-3.2,3.2-6.4,6.4-9.7,9.7,36.3,9.5,4.8,28.9-17.4,32.9l13.5-21.3c-4.8-8.6-86.8,55.7-21.3,21.3,2.6,1.5,2.8,7.4,1.9,9.7-5.5,15.1-159.5,121.3-177.9,150.8,68.2,270,142.1,537.9,174,815.8-59.8-7.1-106.6-54.4-156.6-83.1-5.9-3.4-6.3,8.4-7.7,7.7-6.1-2.9-17.8-30-19.3-30.9-11-6.8-44.8-3.9-46.4-15.5,45.1,10-29.7-35.3-46.4-38.7,14.8,28.8-40.7-17.7-58-19.3l29-1.9c-9.2-16.2-47.2-11.1-48.3-13.5-3.4-7.7,10.5.1,7.7-7.7s-32.9-37.3-40.6-32.9c7.6-20.1,25.7-9.5,38.7-5.8Z"/>
      <path class="st0" d="M1948,666.8c22.1-2.5,40.3,68.7,48.3,83.1,82.6,148.6,162.4,300,257.1,442.7,161,42.4,331.4,25.7,496.8,32.9l-378.9,262.9,185.6,707.6c-5.8,8.9-9.9,1.5-17.4-1.9-139.6-64.7-281.2-180.8-417.6-251.3-25.4-13.1-140.7-72.6-162.4-69.6-181.8,120-365.7,235.6-533.6,375l175.9-744.3-402.1-324.8c157.5,9.4,317.4,11.1,473.6-13.5,13.2-7.7,80-150.4,94.7-175.9,63.2-109.3,128.7-201.9,179.8-322.8Z"/>
      <path class="st4" d="M2696.1,1451.7c59.1-56,133.6-92.9,183.7-143.1,1.8-1.8,15.3-11.5,3.9-11.6-10.4,7.1-22.1,12.9-32.9,19.3,18-14.7,36.4-29.4,54.1-44.5-1.4-2.9-6.5-2.3-9.7-1.9-29.3,3.3-80.8,65.6-112.1,77.3s-25.9-.6-11.6-7.7l282.2-197.2c2,15.4-29.2,26.9-40.6,36.7s-14.3,26.9-17.4,29-7.3-8.1-7.7-7.7c-9.9,7.4-86.2,57.6-54.1,61.9l135.3-100.5c-15.4,17.3-9.9,55.6-40.6,52.2l15.5-15.5c-46.1,14.1-16.1,20.9-15.5,23.2,3.3,11.8-46,30.9-48.3,32.9-10.6,8.9-59.5,64.4-69.6,65.7-25-13.9,35.2-22.9,23.2-38.7-14.1,5.7-29.5,28.7-38.7,34.8s-16.9.2-27.1,7.7c-27.6,20.6-18.6,35.7-38.7,54.1s-43.4,4.2-46.4,38.7l-7.7-23.2c-4.4-.4-27.4,33.6-34.8,38.7-2.1,1.5-29.7,9.4-44.5,19.3Z"/>
      <path class="st4" d="M2756.1,1347.3c7.1,14.8-33.6,25.2,1.9,21.3,1.5,5.9-92.6,53.5-104.4,61.9l102.5-83.1Z"/>
      <path class="st4" d="M2158.7,2074.2c4.8,2.8,96,41.7,88.9,52.2-9.7,5.9-17.5-1.7-25.1-5.8-24.9-13.4-42-29.9-63.8-46.4Z"/>
      <path class="st5" d="M2717.4,1401.5c17.1,17.7-2.7,24.3-19.3,34.8l3.9-15.5-59.9,44.5,75.4-63.8Z"/>
      <path class="st5" d="M2112.3,2035.6c-24.9-16.3-67.5-29-88.9-56.1,32.4,12.9,61.1,35.6,88.9,56.1Z"/>
      <path class="st5" d="M2390.7,2217.3c23.8,6.8,51.8,27.3,69.6,44.5-28-7.1-47.4-28.6-69.6-44.5Z"/>
      <path class="st4" d="M2158.7,2074.2c-12.3-7.3-28.6-11.8-40.6-19.3-.9-.5.6-15.2-5.8-19.3,10.6,7.8,18.7,17.4,21.3,19.3s5.5-7.5,15.5,0c8,6,5.1,15.8,9.7,19.3Z"/>
      <path class="st4" d="M2879.8,1324.1c2.6-.7,8.2-.8,9.7,1.9-38.8,49.9-35.5,4.7-9.7-1.9Z"/>
      <path class="st4" d="M2798.6,1347.3c5.8,8.6-32.8,37.2-36.7,29l36.7-29Z"/>
      <path class="st4" d="M2850.8,1316.4c-7.3,5.9-16.8,24.4-30.9,21.3,5.3-11.6,21.6-15.7,30.9-21.3Z"/>
      <path class="st4" d="M2696.1,1451.7c-2,1.9-9.5,20.2-19.3,13.5,4.1-8.7,14.6-10.4,19.3-13.5Z"/>
      <path class="st4" d="M2504.8,1142.4c13.4-1.7,9.3,14.6-3.9,7.7s3-7.6,3.9-7.7Z"/>
      <path class="st1" d="M3080.8,1123.1c5.7,1.8-1.5,13.6-7.7,11.6-4.3-1.3,7-11.8,7.7-11.6Z"/>
      <polygon class="st1" points="3096.3 1138.5 3098.2 1144.3 3092.4 1146.3 3090.5 1144.3 3096.3 1138.5"/>
    </g>
  </g>
</svg>